<?xml version="1.0" encoding="UTF-8"?> <!-- Generator: Adobe Illustrator 18.1.1, SVG Export Plug-In . SVG Version: 6.00 Build 0) --> <svg xmlns="http://www.w3.org/2000/svg" xmlns:xlink="http://www.w3.org/1999/xlink" version="1.1" id="Layer_1" x="0px" y="0px" viewBox="47.4 303.6 517.7 194.3" xml:space="preserve"> <g> <path fill="#FFFFFF" d="M232.6,442.2L232.6,442.2c-3.2-6.3-9.5-10.5-16.7-10.5c-13.9,0-23.8,5-33.3,10.4c-0.6,0.3-1,0.7-1.2,1.2 c-0.2,0.5-0.4,1-0.4,1.8v0.1l0,0c0,1.9,0,47.7,0,49.7v0l0,0v0.1l0,0c0,1,0.2,1.5,0.4,1.7l0,0l0,0c0.1,0.1,0.2,0.2,0.4,0.3 c0.2,0.1,0.5,0.1,1,0.1c0.1,0,9.3-0.1,9.7-0.1c0.2,0,0.3-0.1,0.4-0.1l0.1-0.1c0,0,0.1-0.2,0.1-0.5l0,0c0-0.4,0.1-1,0.1-1.8 c0-1.3,0-36.8,0-42.5v0V452v0c0-1.2,0.2-2.3,0.7-3.1c0.5-0.9,1.4-1.5,2.5-1.9c4.4-1.5,8.8-3.3,13.4-4.3c0.8-0.2,1.7-0.2,2.5-0.2 c2.3,0,4.6,0.6,6.6,2c1.9,1.4,3.8,3.4,4.4,6.3c0,0.2,0.1,0.5,0.1,0.9c0,0.4,0.1,0.9,0.1,1.5c0.1,1.2,0.6,41.1,0.6,42.5l0,0v0v0v0.1 c0,0.7,0.1,1,0.3,1.2l0,0c0.1,0.1,0.2,0.1,0.3,0.2c0.2,0.1,0.4,0.1,0.8,0.1h0.1c1.2,0,6,0,7.2,0c0.5,0,1,0,1.5,0 c0.6,0,1.1-0.1,1.3-0.2c0.1-0.1,0.2-0.1,0.2-0.3c0.1-0.1,0.1-0.4,0.1-0.7v0v0v0c-0.1-14.2,0.1-28.3-0.3-42.5 C235.4,449.6,234.3,445.6,232.6,442.2z"></path> <path fill="#FFFFFF" d="M146.2,432.7c-2.4-0.4-4.7-0.6-7-0.7l-0.6,0l0,0c-2.1,0.1-4.2,0.3-6.4,0.6c-8.7,1.5-15.4,6-19.5,14 c-2.9,5.6-4,11.3-4,17.2c0,3.9,0.5,7.9,1.3,11.8c0.8,3.7,2.5,7.4,4.6,10.7c4.5,7.1,11.3,10.3,19.6,11.3c1.7,0.2,3.4,0.3,5,0.3 l0.6,0l0,0c1.5,0,2.9-0.1,4.4-0.3c8.2-0.9,14.7-4.2,19.2-11.3c2.1-3.3,3.8-7,4.6-10.7c0.8-4,1.3-7.9,1.3-11.8 c0-5.9-1.1-11.7-4-17.2C161.3,438.7,154.9,434.2,146.2,432.7z M158.1,464.9L158.1,464.9c0,3.5-0.5,7-1.4,10.5 c-0.3,1.1-0.7,2.3-1.3,3.3c-0.9,1.8-2.1,3.5-3.5,4.9c-0.8,0.8-1.6,1.5-2.5,2.1c-0.4,0.3-0.9,0.5-1.3,0.8l0,0l-0.3,0.2l0,0 c-2.4,1.2-5.1,1.6-7.8,1.6h0l0,0h0c-0.1,0-0.4,0-0.7,0c-0.3,0-0.6,0-0.6,0h0c-2.7,0-5.3-0.4-7.8-1.6l0,0l0,0l-0.3-0.2l0,0 c-0.4-0.2-0.9-0.5-1.3-0.8c-0.9-0.6-1.7-1.2-2.5-2.1c-1.3-1.4-2.6-3.1-3.5-4.9c-0.6-1.1-1-2.2-1.3-3.3c-0.9-3.5-1.4-7-1.4-10.5 c0-4.2,0.7-8.5,2.3-12.7c0.1-0.2,0.1-0.3,0.2-0.4c2.5-6,8.4-9.3,14.2-10c0.3,0,0.7,0,1.2,0c1.1,0,2.4,0,2.9,0.1 c5.8,0.7,11.7,4,14.2,10c0,0.1,0.1,0.2,0.2,0.4C157.3,456.4,158.1,460.7,158.1,464.9L158.1,464.9L158.1,464.9L158.1,464.9z"></path> <path fill="#FFFFFF" d="M305.2,433.4c-0.1-0.1-0.6-0.3-1.3-0.3c-3.1,0-6.2-0.2-9.3-0.4c-0.1,0-0.2,0-0.3,0c-0.7,0-0.9,0.1-1.2,0.4 c-0.2,0.2-0.5,0.6-0.6,1.4c-1,4.7-6.3,24.8-11,38.7c-1.5,4.6-3,8.6-4.2,11l0,0c-0.4,0.8-1.2,1.4-2.1,1.7l-0.2,0l-0.2,0 c-0.8-0.3-1.7-0.9-2.1-1.7l0,0v0c-1.2-2.5-2.7-6.4-4.2-11c-1.5-4.6-3.2-10-4.7-15.2c-3-10.4-5.6-20.4-6.3-23.5 c-0.2-0.7-0.4-1.2-0.6-1.4c-0.2-0.2-0.5-0.4-1.2-0.4c-0.1,0-0.2,0-0.3,0c-3.1,0.2-6.2,0.4-9.3,0.4c-0.7,0-1.1,0.1-1.3,0.3l-0.2,0.2 c0,0.1-0.1,0.2-0.1,0.4c0,0.2,0,0.5,0.1,0.8l0,0c0.8,3.6,4.1,14.9,7.9,26.6c3.7,11.7,8,23.9,10.6,29.1c0.9,1.8,1.6,3.2,2.2,4.1 s1.1,1.6,1.7,1.9h0l0,0c0.5,0.3,1.2,0.5,2.2,0.7c1,0.1,2.4,0.1,4.2,0.1c0.2,0,0.4,0,0.5,0c0.3,0,0.5,0,0.8,0h0h0c0.3,0,0.5,0,0.8,0 c0.2,0,0.4,0,0.5,0c1.8,0,3.2,0,4.2-0.1c1-0.1,1.7-0.3,2.2-0.7h0l0,0c0.6-0.4,1.1-0.9,1.7-1.9c0.6-1,1.3-2.3,2.2-4.1 c2.7-5.3,6.9-17.4,10.6-29.1c3.7-11.7,7-23,7.9-26.6l0,0c0.1-0.3,0.1-0.6,0.1-0.8c0-0.2,0-0.4-0.1-0.4L305.2,433.4z"></path> <path fill="#FFFFFF" d="M100.6,492.4l-2.5-6.7c-0.2-0.4-0.5-0.7-0.9-0.7l-0.3,0c-1.4,0.4-3,0.9-4.7,1.4c-2.5,0.7-5.9,1-10.4,1h-0.1 c-4,0-7.5-0.9-10.3-2.1c-2.8-1.2-4.8-2.6-5.8-3.7c-1.9-2-3.5-4.4-4.7-7.2c-1.2-2.8-1.8-6-1.8-9.6c0-3.8,0.6-7.1,1.8-10 c1.2-2.8,2.7-5.3,4.7-7.2c3.7-3.3,8.6-5.2,16.1-5.5c0.7,0,1.3,0,2,0c3.5,0,6.3,0.5,8.3,1.1c1.7,0.5,3.2,0.9,4.5,1.4 c0.1,0,0.2,0.1,0.3,0.1c0.4,0,0.8-0.3,1-0.7l2.3-6.8v0c0-0.1,0.1-0.2,0.1-0.3c0-0.4-0.2-0.8-0.6-0.9c-0.5-0.2-1.1-0.4-1.6-0.6 c-1.2-0.4-2.6-0.8-4.3-1.2c-1.7-0.4-3.7-0.7-5.9-1c-2.2-0.3-5.2-0.4-8.3-0.4c-4.2,0-8.8,0.7-12.7,2.3c-4,1.5-6.8,3.6-9.9,6.4 c-3,2.8-4.9,6.3-6.8,10.3c-1.8,3.9-2.6,8.3-2.6,13.2c0,4.8,0.7,9.1,2.2,13.1l0,0c1.5,4,3.6,7.3,6.4,10.1c2.9,2.8,5.3,5,9.2,6.6 c4,1.6,9,2.4,14,2.4c6.3,0,11.5-0.5,14.8-1.3c2.5-0.7,4.5-1.3,6-2c0.4-0.2,0.6-0.5,0.6-0.9C100.7,492.6,100.7,492.5,100.6,492.4 L100.6,492.4z"></path> <path fill="#FFFFFF" d="M356.9,435.8c-4.7-2.6-8.6-3.5-13.7-3.5c-1.4,0-2.9,0.1-4.3,0.2c-10.1,1.1-19.1,6.7-24.1,15.6 c-3.2,5.6-4.5,11.5-4.5,17.5c0,2.3,0.2,4.6,0.5,6.9c0.9,5.9,3.1,11.2,7.2,15.6c5.6,6,12.5,8.5,20.5,9.3c1.5,0.1,3,0.2,4.4,0.2 c4.9,0,9.7-0.8,14.4-2c2.4-0.6,4.7-1.4,6.9-2.6c0.5-0.3,0.8-0.8,0.8-1.3c0-0.2,0-0.4-0.1-0.6l-2.7-6.3c-0.2-0.5-0.8-0.9-1.3-0.9 c-0.2,0-0.4,0-0.5,0.1c-3.8,1.6-7.6,2.7-11.7,2.9c-1.5,0.1-2.9,0.2-4.4,0.2c-2.6,0-5.3-0.2-7.8-0.9c-7.8-2-12.5-7.9-13.3-15.4 l0-0.2c0,0,24.3,0,28.5,0c2,0,4.1-0.1,6.1-0.4c6-0.9,8.5-4.3,9.9-10c0.3-1.5,0.5-3,0.5-4.5c0-1-0.1-2.1-0.2-3.1 C367,445.3,363.5,439.4,356.9,435.8z M357.2,457.3c-0.3,2.3-1.7,3.9-4,4.4c-1.3,0.3-2.7,0.5-4,0.5c-4.7,0-9.5,0-14.2,0 c-3.6,0-12.1,0-12.1,0l0-0.2c0.2-9.1,5.8-18,14.8-20.1c1.7-0.4,3.4-0.6,5.1-0.6c3.6,0,7.1,1,10.3,3.5c2.8,2.2,4.1,5.2,4.4,8.6 c0,0.3,0,0.7,0,1C357.5,455.4,357.4,456.4,357.2,457.3z"></path> <path fill="#FFFFFF" d="M413,464.7c0.1-2,8.7-8.3,14-17.7c2.5-4.4,3.6-7.5,3.8-9.8c0.3-3.8,0.1-4.9-4.7-5c-6,0-5.2,1.3-5.9,3.9 c-0.4,1.5-1,3-1.7,4.5c-2.8,6.7-10.6,14.7-11.9,14.7c-0.5,0-1.5-1.5-1.8-1.9c-0.7-1-12.3-17.1-14.5-18.7c-2.1-1.6-5-2.5-8.2-2.5h0 c-0.7,0-1.4,0-2.1,0.1c-0.8,0.1-3.5,1.1-2.2,2.9c0,0,17.7,22.6,18.8,25.1c0.3,0.6,0.7,1.2,0.7,1.7v0c0,0.6-0.5,1.1-0.9,1.6 c-9.3,11.8-14.3,13.6-17.6,22c-0.9,2.2-1.5,5.4-1.5,7.2c0,3.4-0.2,5,3.9,5c3.4,0,5.6,0.5,6-2.4c0.2-1.6,0.4-2.8,1-4.3 c2.6-6.6,8.2-11.9,13-16.9c0.5-0.5,1.4-2,2.5-1.9c1.1,0.1,1.8,1.3,2.5,2.4c3.9,5.4,15.5,19.8,19.2,22c1.3,0.8,5.6,2.8,10.2-0.5 c1.9-1.3,0.2-2.7-0.1-3l0,0C430.4,488.8,413.1,468.7,413,464.7"></path> </g> <g> <linearGradient id="SVGID_1_" gradientUnits="userSpaceOnUse" x1="742.7162" y1="651.6963" x2="685.9612" y2="691.7324" gradientTransform="matrix(0.6243 0 0 -0.6243 0 744.4866)"> <stop offset="0" style="stop-color:#376B7A"></stop> <stop offset="0.2148" style="stop-color:#4B9E97"></stop> <stop offset="1" style="stop-color:#C2DFC3"></stop> </linearGradient> <path fill="url(#SVGID_1_)" d="M459.4,313.6c0,0-5.4-14.7-20.8-8.2c-15.4,6.6-19.6,25-19.6,25c29.9-14.1,41.2,8.6,42.3,10.5 C463.7,321.8,459.4,313.6,459.4,313.6z"></path> <linearGradient id="SVGID_2_" gradientUnits="userSpaceOnUse" x1="666.9105" y1="608.579" x2="730.3054" y2="585.355" gradientTransform="matrix(0.6243 0 0 -0.6243 0 744.4866)"> <stop offset="0" style="stop-color:#376B7A"></stop> <stop offset="0.1965" style="stop-color:#4B9E97"></stop> <stop offset="0.3599" style="stop-color:#6EB3A5"></stop> <stop offset="0.5313" style="stop-color:#8EC4B1"></stop> <stop offset="0.7169" style="stop-color:#ABD3BB"></stop> <stop offset="0.8794" style="stop-color:#BCDCC1"></stop> <stop offset="0.9995" style="stop-color:#C2DFC3"></stop> </linearGradient> <path fill="url(#SVGID_2_)" d="M424.8,377.5c11.7,17.6,29.3,20.3,29.4,20.4c-1-9.4,0.4-20.3,2-29c-40.9-6-42.1-23.3-42.1-25.1 C413.5,353.6,417.2,366.1,424.8,377.5z"></path> <linearGradient id="SVGID_3_" gradientUnits="userSpaceOnUse" x1="689.4816" y1="661.1874" x2="678.2992" y2="556.55" gradientTransform="matrix(0.6243 0 0 -0.6243 0 744.4866)"> <stop offset="0" style="stop-color:#C2DFC3"></stop> <stop offset="0.1619" style="stop-color:#BDDCC1"></stop> <stop offset="0.353" style="stop-color:#AFD4BC"></stop> <stop offset="0.5588" style="stop-color:#97C7B3"></stop> <stop offset="0.775" style="stop-color:#76B5A7"></stop> <stop offset="0.9973" style="stop-color:#4C9E97"></stop> <stop offset="1" style="stop-color:#4B9E97"></stop> </linearGradient> <path fill="url(#SVGID_3_)" d="M419.1,330.5c0,0-21.1,7.7-23,31.4c-1.5,18.6,16.8,28.4,18.4,29.3c0,0,14,8.3,40,8.7 c-0.1-1.1-0.2-2-0.2-2s-17.7-2.7-29.4-20.4C413.1,359.8,410.7,339.7,419.1,330.5z"></path> <linearGradient id="SVGID_4_" gradientUnits="userSpaceOnUse" x1="754.1947" y1="578.205" x2="879.0121" y2="598.1901" gradientTransform="matrix(0.6243 0 0 -0.6243 0 744.4866)"> <stop offset="0" style="stop-color:#C2DFC3"></stop> <stop offset="0.1171" style="stop-color:#BCDCC1"></stop> <stop offset="0.2786" style="stop-color:#AAD2BA"></stop> <stop offset="0.4649" style="stop-color:#8DC3B0"></stop> <stop offset="0.6259" style="stop-color:#6EB3A5"></stop> <stop offset="0.8418" style="stop-color:#4B9E97"></stop> <stop offset="0.8894" style="stop-color:#479390"></stop> <stop offset="0.9741" style="stop-color:#3B747F"></stop> <stop offset="0.9962" style="stop-color:#376B7A"></stop> </linearGradient> <path fill="url(#SVGID_4_)" d="M552.8,371.9L552.8,371.9c-0.6-2.9-2-5.3-3.9-7.1c-1.3-1.1-2.8-2-4.6-2.5c0,0,0,0,0,0l0,0h0 c0,0,0,0-0.1,0l0,0c-15.4-3.7-34.4,0.8-45.5,2.8c-9.3,1.6-19.3,3.4-28.8,4c0,0.1,0,2.4,0,2.5c0,10.8,3.4,19.2,8.7,25.1 c5.9-1.4,17.1-4.5,30.3-11.3c22.2-11.4,35.9-14,44.2-12.1C553,372.9,552.9,372.4,552.8,371.9z"></path> <g> <radialGradient id="SVGID_5_" cx="759.6005" cy="547.5694" r="98.1673" fx="749.0526" fy="547.4944" gradientTransform="matrix(0.6243 0 0 -0.6243 0 744.4866)" gradientUnits="userSpaceOnUse"> <stop offset="0" style="stop-color:#4B9E97"></stop> <stop offset="1" style="stop-color:#C2DFC3"></stop> </radialGradient> <path fill="url(#SVGID_5_)" d="M551.2,364.7c-2.2-1-4.5-1.8-6.9-2.3c0,0,0,0,0,0c1.8,0.5,3.3,1.3,4.6,2.5c2,1.8,3.3,4.2,3.9,7.1 l0,0c0.1,0.5,0.2,1,0.2,1.4l0,0c0.1,0.7,0.1,1.4,0.1,2.1c0.1,5.8-2.5,12.5-8.4,18.4c-3.9,3.8-9.2,7.3-16.1,9.9 c-4.4,1.7-9.3,3-14.8,3.8c-2.8,0.4-5.4,0.6-7.9,0.6c-10.5,0.1-20.6-3.7-27.5-11.4l0,0c-5.3-6-8.7-14.4-8.7-25.1l0,0c0,0,0,0,0,0 c0-0.3,0-2.2,0-2.5c0,0,0,0,0,0l0,0v0c0.2-14.4,4-30.4,2.5-40.5c-0.7-4.7-3.2-15-11.7-20.8c-8.4-5.7-15.7-4.1-16.8-3.9l1-0.1 c7.9-0.7,12.5,5,14.6,9.8c2.3,5.3,3.4,14.3,1.9,27.3c-0.2,4.2-1.9,13-2.9,17.3c-2.1,9.1-6,27.4-4.1,41.6 c3.6,26.6,22.9,40.6,45.7,40.6c35.1,0.1,64.8-25.5,65-53.9C565.2,374,557.1,367.4,551.2,364.7z"></path> </g> </g> </svg> 